<?xml version="1.0" standalone="no"?>
<!DOCTYPE svg PUBLIC "-//W3C//DTD SVG 20010904//EN"
 "http://www.w3.org/TR/2001/REC-SVG-20010904/DTD/svg10.dtd">
<svg version="1.0" xmlns="http://www.w3.org/2000/svg"
 width="512.000000pt" height="512.000000pt" viewBox="0 0 512.000000 512.000000"
 preserveAspectRatio="xMidYMid meet">
<metadata>
Created by potrace 1.14, written by Peter Selinger 2001-2017
</metadata>
<g transform="translate(0.000000,512.000000) scale(0.100000,-0.100000)"
fill="#000000" stroke="none">
<path d="M2439 4946 c-2 -2 -30 -6 -62 -10 -108 -11 -235 -46 -352 -96 -69
-29 -189 -90 -195 -99 -3 -4 -23 -18 -45 -31 -49 -30 -155 -119 -211 -176
-212 -221 -347 -502 -382 -799 -10 -83 -8 -291 3 -360 23 -146 60 -263 126
-404 27 -57 49 -104 49 -105 0 -2 -15 -2 -32 -2 -229 1 -535 -97 -736 -236
-74 -51 -201 -163 -261 -232 -57 -64 -151 -203 -191 -285 -103 -206 -142 -366
-146 -596 -5 -312 68 -557 240 -810 65 -96 234 -273 305 -321 115 -77 153 -99
237 -140 293 -142 640 -172 959 -85 310 85 601 295 775 558 19 29 37 53 40 53
3 0 18 -21 35 -48 36 -58 123 -161 185 -222 192 -186 428 -310 700 -367 90
-19 383 -26 465 -11 22 4 54 10 70 13 181 35 370 118 535 234 96 68 267 243
331 341 110 167 191 365 224 550 11 62 14 353 4 415 -44 274 -147 503 -315
700 -212 251 -476 403 -819 471 -32 6 -158 17 -192 17 -18 0 -33 0 -33 2 0 1
22 49 49 106 98 209 134 361 135 584 1 133 -7 243 -19 278 -3 7 -7 23 -9 37
-71 361 -336 717 -676 907 -119 66 -300 132 -407 148 -21 3 -50 8 -63 11 -27
7 -315 15 -321 10z"/>
</g>
</svg>
